# xmcd
#
# Track frame offsets:
#	150
#	16513
#	29104
#	46306
#	65825
#	77425
#
# Disc length: 1263 seconds
#
# Revision: 1
# Processed by: cddbd v1.5.2PL0 Copyright (c) Steve Scherf et al.
# Submitted via: audiograbber 1.83.01
#
DISCID=4304ed06
DTITLE=Sammy's Blues Jam - The blues job
DYEAR=2008
DGENRE=Blues
TTITLE0=Upside down
TTITLE1=The road again
TTITLE2=Living in a grey world
TTITLE3=I'll sing the blues for you
TTITLE4=Dead End Street
TTITLE5=It ain't enough
EXTD=
EXTT0=
EXTT1=
EXTT2=
EXTT3=
EXTT4=
EXTT5=
PLAYORDER=
